<svg xmlns="http://www.w3.org/2000/svg" xmlns:xlink="http://www.w3.org/1999/xlink" viewBox="0 0 1508.92 663.4"><defs><style>.cls-1{isolation:isolate;}.cls-2{fill:#e3e3e3;}.cls-3{fill:url(#linear-gradient);}.cls-14,.cls-18,.cls-20,.cls-24,.cls-26,.cls-29,.cls-31,.cls-35,.cls-37,.cls-4,.cls-41,.cls-42,.cls-8,.cls-9{opacity:0.75;}.cls-14,.cls-16,.cls-17,.cls-20,.cls-22,.cls-23,.cls-26,.cls-28,.cls-31,.cls-33,.cls-34,.cls-37,.cls-4,.cls-40,.cls-6,.cls-7{mix-blend-mode:multiply;}.cls-4{fill:url(#radial-gradient);}.cls-5{fill:url(#linear-gradient-2);}.cls-6,.cls-7{fill:url(#linear-gradient-3);}.cls-17,.cls-7{opacity:0.3;}.cls-18,.cls-24,.cls-29,.cls-35,.cls-41,.cls-8{mix-blend-mode:overlay;}.cls-8{fill:url(#radial-gradient-2);}.cls-10,.cls-11,.cls-12,.cls-42,.cls-43,.cls-9{fill:#fff;}.cls-10,.cls-11,.cls-34,.cls-40{opacity:0.5;}.cls-11,.cls-42{mix-blend-mode:soft-light;}.cls-12{opacity:0.15;}.cls-13{fill:url(#linear-gradient-5);}.cls-14{fill:url(#radial-gradient-3);}.cls-15{fill:url(#linear-gradient-6);}.cls-16,.cls-17{fill:url(#linear-gradient-7);}.cls-18{fill:url(#radial-gradient-4);}.cls-19{fill:url(#linear-gradient-9);}.cls-20{fill:url(#radial-gradient-5);}.cls-21{fill:url(#linear-gradient-10);}.cls-22,.cls-23{fill:url(#linear-gradient-11);}.cls-23,.cls-43{opacity:0.2;}.cls-24{fill:url(#radial-gradient-6);}.cls-25{fill:url(#linear-gradient-13);}.cls-26{fill:url(#radial-gradient-7);}.cls-27{fill:url(#linear-gradient-14);}.cls-28{fill:url(#linear-gradient-15);}.cls-29{fill:url(#radial-gradient-8);}.cls-30{fill:url(#linear-gradient-16);}.cls-31{fill:url(#radial-gradient-9);}.cls-32{fill:url(#linear-gradient-17);}.cls-33,.cls-34{fill:url(#linear-gradient-18);}.cls-35{fill:url(#radial-gradient-10);}.cls-36{fill:url(#linear-gradient-20);}.cls-37{fill:url(#radial-gradient-11);}.cls-38{fill:url(#linear-gradient-21);}.cls-39{mix-blend-mode:color-burn;}.cls-39,.cls-40{fill:url(#linear-gradient-22);}.cls-41{fill:url(#radial-gradient-12);}.cls-44{font-size:72px;font-family:Futura-CondensedExtraBold, Futura;font-weight:800;}.cls-44,.cls-47{fill:#d5def6;}.cls-45{letter-spacing:0.01em;}.cls-46{letter-spacing:0.02em;}.cls-47{font-size:43px;font-family:Futura-CondensedMedium, Futura;font-weight:500;}.cls-48{letter-spacing:0em;}.cls-49{letter-spacing:0.01em;}.cls-50{letter-spacing:0em;}.cls-51{letter-spacing:0em;}.cls-52{letter-spacing:0em;}.cls-53{letter-spacing:-0.01em;}</style><linearGradient id="linear-gradient" x1="481.97" y1="770" x2="1661.1" y2="770" gradientUnits="userSpaceOnUse"><stop offset="0" stop-color="#0072ff"/><stop offset="1" stop-color="#73009c"/></linearGradient><radialGradient id="radial-gradient" cx="1473.92" cy="628.4" r="35" gradientUnits="userSpaceOnUse"><stop offset="0"/><stop offset="0.16" stop-color="#3d3d3d"/><stop offset="0.32" stop-color="#777"/><stop offset="0.49" stop-color="#a8a8a8"/><stop offset="0.64" stop-color="#cecece"/><stop offset="0.78" stop-color="#e9e9e9"/><stop offset="0.9" stop-color="#f9f9f9"/><stop offset="1" stop-color="#fff"/></radialGradient><linearGradient id="linear-gradient-2" x1="1429.18" y1="583.65" x2="1478.67" y2="633.15" gradientUnits="userSpaceOnUse"><stop offset="0" stop-color="#00baff"/><stop offset="1" stop-color="#8000ad"/></linearGradient><linearGradient id="linear-gradient-3" x1="1478.67" y1="633.15" x2="1429.18" y2="583.65" gradientUnits="userSpaceOnUse"><stop offset="0" stop-color="#303030"/><stop offset="1" stop-color="#fff"/></linearGradient><radialGradient id="radial-gradient-2" cx="2061.38" cy="833.96" r="48.38" gradientTransform="translate(169.9 167.35) scale(0.72)" gradientUnits="userSpaceOnUse"><stop offset="0" stop-color="#303030"/><stop offset="0.21" stop-color="#333"/><stop offset="0.36" stop-color="#3c3c3c"/><stop offset="0.48" stop-color="#4b4b4b"/><stop offset="0.6" stop-color="#606060"/><stop offset="0.7" stop-color="#7c7c7c"/><stop offset="0.8" stop-color="#9e9e9e"/><stop offset="0.89" stop-color="#c7c7c7"/><stop offset="0.98" stop-color="#f5f5f5"/><stop offset="1" stop-color="#fff"/></radialGradient><linearGradient id="linear-gradient-5" x1="481.97" y1="695" x2="1470.33" y2="695" gradientUnits="userSpaceOnUse"><stop offset="0" stop-color="#00a1ff"/><stop offset="1" stop-color="#0060ad"/></linearGradient><radialGradient id="radial-gradient-3" cx="1286.78" cy="552.54" r="45" xlink:href="#radial-gradient"/><linearGradient id="linear-gradient-6" x1="1242.03" y1="507.79" x2="1291.53" y2="557.29" gradientUnits="userSpaceOnUse"><stop offset="0" stop-color="aqua"/><stop offset="1" stop-color="#006aff"/></linearGradient><linearGradient id="linear-gradient-7" x1="1291.53" y1="557.29" x2="1242.03" y2="507.79" xlink:href="#linear-gradient-3"/><radialGradient id="radial-gradient-4" cx="2693.85" cy="-637.59" r="146.57" gradientTransform="translate(830.67 847.04) scale(0.24)" xlink:href="#radial-gradient-2"/><linearGradient id="linear-gradient-9" x1="481.97" y1="620" x2="875.47" y2="620" gradientUnits="userSpaceOnUse"><stop offset="0" stop-color="#00d888"/><stop offset="1" stop-color="#005959"/></linearGradient><radialGradient id="radial-gradient-5" cx="688.29" cy="473.4" r="45" xlink:href="#radial-gradient"/><linearGradient id="linear-gradient-10" x1="643.54" y1="428.65" x2="693.04" y2="478.15" gradientUnits="userSpaceOnUse"><stop offset="0" stop-color="#0f7"/><stop offset="1" stop-color="#006363"/></linearGradient><linearGradient id="linear-gradient-11" x1="693.04" y1="478.15" x2="643.54" y2="428.65" xlink:href="#linear-gradient-3"/><radialGradient id="radial-gradient-6" cx="1005.74" cy="632.13" r="45.84" gradientTransform="translate(107.48 132.94) scale(0.76)" xlink:href="#radial-gradient-2"/><linearGradient id="linear-gradient-13" x1="481.97" y1="545" x2="1101.97" y2="545" gradientUnits="userSpaceOnUse"><stop offset="0" stop-color="#8ee800"/><stop offset="1" stop-color="#008b00"/></linearGradient><radialGradient id="radial-gradient-7" cx="895.06" cy="402.76" r="45" xlink:href="#radial-gradient"/><linearGradient id="linear-gradient-14" x1="850.31" y1="358.01" x2="899.81" y2="407.51" gradientUnits="userSpaceOnUse"><stop offset="0" stop-color="#85d900"/><stop offset="1" stop-color="#008b00"/></linearGradient><linearGradient id="linear-gradient-15" x1="899.81" y1="407.51" x2="850.31" y2="358.01" xlink:href="#linear-gradient-3"/><radialGradient id="radial-gradient-8" cx="1276.53" cy="539.62" r="45.84" gradientTransform="translate(107.48 132.94) scale(0.76)" xlink:href="#radial-gradient-2"/><linearGradient id="linear-gradient-16" x1="481.97" y1="470" x2="1377.52" y2="470" gradientUnits="userSpaceOnUse"><stop offset="0" stop-color="#aae800"/><stop offset="1" stop-color="#007a00"/></linearGradient><radialGradient id="radial-gradient-9" cx="1178.78" cy="323.39" r="45" xlink:href="#radial-gradient"/><linearGradient id="linear-gradient-17" x1="1134.03" y1="278.64" x2="1183.53" y2="328.14" gradientUnits="userSpaceOnUse"><stop offset="0" stop-color="#ff0"/><stop offset="1" stop-color="#36ff00"/></linearGradient><linearGradient id="linear-gradient-18" x1="1183.53" y1="328.14" x2="1134.03" y2="278.64" xlink:href="#linear-gradient-3"/><radialGradient id="radial-gradient-10" cx="1648.09" cy="435.69" r="45.84" gradientTransform="translate(107.48 132.94) scale(0.76)" xlink:href="#radial-gradient-2"/><linearGradient id="linear-gradient-20" x1="481.97" y1="395" x2="1485.33" y2="395" gradientUnits="userSpaceOnUse"><stop offset="0" stop-color="#ffba00"/><stop offset="1" stop-color="#f30"/></linearGradient><radialGradient id="radial-gradient-11" cx="1301.78" cy="256.37" r="45" xlink:href="#radial-gradient"/><linearGradient id="linear-gradient-21" x1="1257.03" y1="211.62" x2="1306.53" y2="261.12" gradientUnits="userSpaceOnUse"><stop offset="0" stop-color="#ff0"/><stop offset="1" stop-color="#ff4d00"/></linearGradient><linearGradient id="linear-gradient-22" x1="1306.53" y1="261.12" x2="1257.03" y2="211.62" xlink:href="#linear-gradient-3"/><radialGradient id="radial-gradient-12" cx="1809.17" cy="347.92" r="45.84" gradientTransform="translate(107.48 132.94) scale(0.76)" xlink:href="#radial-gradient-2"/></defs><g class="cls-1"><g id="Layer"><text x="-207.18" y="-162.24"/><g id="_6" data-name="6"><path class="cls-2" d="M1662,790H502a20,20,0,0,1,0-40H1662a20,20,0,1,1,0,40Z" transform="translate(-207.18 -162.24)"/><path class="cls-3" d="M1621.6,790H521.48c-21.82,0-39.51-9-39.51-20s17.69-20,39.51-20H1621.6c21.82,0,39.5,9,39.5,20S1643.42,790,1621.6,790Z" transform="translate(-207.18 -162.24)"/><g id="_6-2" data-name="6"><circle class="cls-4" cx="1473.92" cy="628.4" r="35"/><circle class="cls-5" cx="1453.92" cy="608.4" r="35"/><circle class="cls-6" cx="1453.92" cy="608.4" r="35"/><circle class="cls-7" cx="1453.92" cy="608.4" r="35"/><path class="cls-8" d="M1661.1,735.64a35,35,0,1,0,35,35A35,35,0,0,0,1661.1,735.64Zm0,61.59a26.59,26.59,0,1,1,26.59-26.59A26.59,26.59,0,0,1,1661.1,797.23Z" transform="translate(-207.18 -162.24)"/><path class="cls-9" d="M1647,744.84l3.64,7.15A21.46,21.46,0,0,0,1640,767l-7.93-1.26A29.44,29.44,0,0,1,1647,744.84Z" transform="translate(-207.18 -162.24)"/><path class="cls-9" d="M1657.47,749.56a21.22,21.22,0,0,0-5.3,1.65l-3.65-7.16a28.8,28.8,0,0,1,7.7-2.42Z" transform="translate(-207.18 -162.24)"/><path class="cls-10" d="M1655.69,738.29A32.66,32.66,0,0,0,1647,741l1,2a30.24,30.24,0,0,1,8-2.52Zm-10.24,3.54a32.84,32.84,0,0,0-16.69,23.39l2.26.37a30.56,30.56,0,0,1,15.47-21.72Z" transform="translate(-207.18 -162.24)"/><path class="cls-11" d="M1631.79,777.14l-1.68.37a31.75,31.75,0,0,0,23.05,23.86l.43-1.66A30.05,30.05,0,0,1,1631.79,777.14Z" transform="translate(-207.18 -162.24)"/><path class="cls-9" d="M1631.79,777.14l-1.68.37a31.13,31.13,0,0,0,2.9,7.91l1.52-.8A29.56,29.56,0,0,1,1631.79,777.14Z" transform="translate(-207.18 -162.24)"/><path class="cls-12" d="M1626.1,770.64a34.86,34.86,0,0,0,10.26,24.75l13.18-13.19a16.37,16.37,0,0,1,0-23.12l-13.18-13.19A34.89,34.89,0,0,0,1626.1,770.64Z" transform="translate(-207.18 -162.24)"/><path class="cls-12" d="M1696.1,770.64a34.87,34.87,0,0,0-10.25-24.75l-13.19,13.19a16.36,16.36,0,0,1,0,23.12l13.19,13.19a34.89,34.89,0,0,0,10.25-24.75Z" transform="translate(-207.18 -162.24)"/></g></g><g id="_5" data-name="5"><path class="cls-2" d="M1662,715H502a20,20,0,0,1,0-40H1662a20,20,0,1,1,0,40Z" transform="translate(-207.18 -162.24)"/><path class="cls-13" d="M1444.56,715H507.75c-14.24,0-25.78-9-25.78-20s11.54-20,25.78-20h936.81c14.23,0,25.77,9,25.77,20S1458.79,715,1444.56,715Z" transform="translate(-207.18 -162.24)"/><g id="_5-2" data-name="5"><circle class="cls-14" cx="1286.78" cy="552.54" r="45"/><circle class="cls-15" cx="1266.78" cy="532.54" r="35"/><circle class="cls-16" cx="1266.78" cy="532.54" r="35"/><circle class="cls-17" cx="1266.78" cy="532.54" r="35"/><path class="cls-18" d="M1474,659.78a35,35,0,1,0,35,35A35,35,0,0,0,1474,659.78Zm0,61.59a26.59,26.59,0,1,1,26.59-26.59A26.59,26.59,0,0,1,1474,721.37Z" transform="translate(-207.18 -162.24)"/><path class="cls-9" d="M1459.85,669l3.64,7.15a21.4,21.4,0,0,0-10.61,15l-7.93-1.26A29.44,29.44,0,0,1,1459.85,669Z" transform="translate(-207.18 -162.24)"/><path class="cls-9" d="M1470.33,673.7a21.09,21.09,0,0,0-5.3,1.65l-3.65-7.16a29.11,29.11,0,0,1,7.69-2.43Z" transform="translate(-207.18 -162.24)"/><path class="cls-10" d="M1468.55,662.43a32.54,32.54,0,0,0-8.71,2.75l1.05,2a30.24,30.24,0,0,1,8-2.52ZM1458.31,666a32.88,32.88,0,0,0-16.7,23.39l2.27.37A30.56,30.56,0,0,1,1459.35,668Z" transform="translate(-207.18 -162.24)"/><path class="cls-11" d="M1444.64,701.28l-1.68.37a31.8,31.8,0,0,0,23,23.86l.43-1.66A30.08,30.08,0,0,1,1444.64,701.28Z" transform="translate(-207.18 -162.24)"/><path class="cls-9" d="M1444.65,701.28l-1.69.37a31.52,31.52,0,0,0,2.9,7.91l1.53-.8A29.18,29.18,0,0,1,1444.65,701.28Z" transform="translate(-207.18 -162.24)"/><path class="cls-12" d="M1439,694.78a34.86,34.86,0,0,0,10.26,24.75l13.18-13.19a16.37,16.37,0,0,1,0-23.12L1449.21,670A34.93,34.93,0,0,0,1439,694.78Z" transform="translate(-207.18 -162.24)"/><path class="cls-12" d="M1509,694.78A34.92,34.92,0,0,0,1498.71,670l-13.19,13.19a16.36,16.36,0,0,1,0,23.12l13.19,13.19A34.89,34.89,0,0,0,1509,694.78Z" transform="translate(-207.18 -162.24)"/></g></g><g id="_4" data-name="4"><path class="cls-2" d="M1662,640H502a20,20,0,0,1,0-40H1662a20,20,0,1,1,0,40Z" transform="translate(-207.18 -162.24)"/><path class="cls-19" d="M866.88,640H490.56c-4.74,0-8.59-9-8.59-20s3.85-20,8.59-20H866.88c4.74,0,8.59,9,8.59,20S871.62,640,866.88,640Z" transform="translate(-207.18 -162.24)"/><g id="_4-2" data-name="4"><circle class="cls-20" cx="688.29" cy="473.4" r="45"/><circle class="cls-21" cx="668.29" cy="453.4" r="35"/><circle class="cls-22" cx="668.29" cy="453.4" r="35"/><circle class="cls-23" cx="668.29" cy="453.4" r="35"/><path class="cls-24" d="M875.47,580.64a35,35,0,1,0,35,35A35,35,0,0,0,875.47,580.64Zm0,61.59a26.59,26.59,0,1,1,26.58-26.59A26.59,26.59,0,0,1,875.47,642.23Z" transform="translate(-207.18 -162.24)"/><path class="cls-9" d="M861.35,589.84,865,597a21.44,21.44,0,0,0-10.62,15l-7.93-1.26A29.47,29.47,0,0,1,861.35,589.84Z" transform="translate(-207.18 -162.24)"/><path class="cls-9" d="M871.84,594.56a21.09,21.09,0,0,0-5.3,1.65l-3.65-7.16a28.62,28.62,0,0,1,7.69-2.42Z" transform="translate(-207.18 -162.24)"/><path class="cls-10" d="M870.05,583.29a32.47,32.47,0,0,0-8.7,2.75l1,2a30.24,30.24,0,0,1,8-2.52Zm-10.23,3.54a32.82,32.82,0,0,0-16.7,23.39l2.27.37a30.56,30.56,0,0,1,15.47-21.72Z" transform="translate(-207.18 -162.24)"/><path class="cls-11" d="M846.15,622.14l-1.68.37a31.77,31.77,0,0,0,23,23.86l.43-1.66A30.07,30.07,0,0,1,846.15,622.14Z" transform="translate(-207.18 -162.24)"/><path class="cls-9" d="M846.15,622.14l-1.68.37a31.52,31.52,0,0,0,2.9,7.91l1.52-.8A29.56,29.56,0,0,1,846.15,622.14Z" transform="translate(-207.18 -162.24)"/><path class="cls-12" d="M840.47,615.64a34.89,34.89,0,0,0,10.25,24.75L863.9,627.2a16.38,16.38,0,0,1,0-23.12l-13.18-13.19A34.89,34.89,0,0,0,840.47,615.64Z" transform="translate(-207.18 -162.24)"/><path class="cls-12" d="M910.47,615.64a35,35,0,0,0-10.26-24.75L887,604.08a16.36,16.36,0,0,1,0,23.12l13.18,13.19a35,35,0,0,0,9.55-17.7A35.49,35.49,0,0,0,910.47,615.64Z" transform="translate(-207.18 -162.24)"/></g></g><g id="_3" data-name="3"><path class="cls-2" d="M1662,565H502a20,20,0,0,1,0-40H1662a20,20,0,1,1,0,40Z" transform="translate(-207.18 -162.24)"/><path class="cls-25" d="M1082,565H502a20,20,0,0,1,0-40h580a20,20,0,0,1,0,40Z" transform="translate(-207.18 -162.24)"/><g id="_3-2" data-name="3"><circle class="cls-26" cx="895.06" cy="402.76" r="45"/><circle class="cls-27" cx="875.06" cy="382.76" r="35"/><circle class="cls-28" cx="875.06" cy="382.76" r="35"/><path class="cls-29" d="M1082.24,510a35,35,0,1,0,35,35A35,35,0,0,0,1082.24,510Zm0,61.58A26.58,26.58,0,1,1,1108.83,545,26.58,26.58,0,0,1,1082.24,571.58Z" transform="translate(-207.18 -162.24)"/><path class="cls-9" d="M1068.13,519.2l3.64,7.15a21.4,21.4,0,0,0-10.61,15l-7.93-1.26A29.44,29.44,0,0,1,1068.13,519.2Z" transform="translate(-207.18 -162.24)"/><path class="cls-9" d="M1078.61,523.92a21.09,21.09,0,0,0-5.3,1.65l-3.65-7.16a29.11,29.11,0,0,1,7.69-2.43Z" transform="translate(-207.18 -162.24)"/><path class="cls-10" d="M1076.83,512.65a32.54,32.54,0,0,0-8.71,2.75l1.05,2a30.24,30.24,0,0,1,8-2.52Zm-10.24,3.54a32.88,32.88,0,0,0-16.7,23.39l2.27.36a30.57,30.57,0,0,1,15.47-21.71Z" transform="translate(-207.18 -162.24)"/><path class="cls-11" d="M1052.92,551.5l-1.68.37a31.8,31.8,0,0,0,23,23.86l.43-1.66A30.08,30.08,0,0,1,1052.92,551.5Z" transform="translate(-207.18 -162.24)"/><path class="cls-9" d="M1052.93,551.5l-1.69.37a31.91,31.91,0,0,0,2.9,7.91l1.53-.8A29.18,29.18,0,0,1,1052.93,551.5Z" transform="translate(-207.18 -162.24)"/><path class="cls-12" d="M1047.24,545a34.86,34.86,0,0,0,10.26,24.75l13.18-13.19a16.38,16.38,0,0,1,0-23.13l-13.19-13.18A34.89,34.89,0,0,0,1047.24,545Z" transform="translate(-207.18 -162.24)"/><path class="cls-12" d="M1117.24,545A34.86,34.86,0,0,0,1107,520.25l-13.19,13.18a16.37,16.37,0,0,1,0,23.13L1107,569.75A34.9,34.9,0,0,0,1117.24,545Z" transform="translate(-207.18 -162.24)"/></g></g><g id="_2" data-name="2"><path class="cls-2" d="M1662,490H502a20,20,0,0,1,0-40H1662a20,20,0,0,1,0,40Z" transform="translate(-207.18 -162.24)"/><path class="cls-30" d="M1359.74,490h-860c-9.82,0-17.79-8.95-17.79-20s8-20,17.79-20h860c9.82,0,17.78,8.95,17.78,20S1369.56,490,1359.74,490Z" transform="translate(-207.18 -162.24)"/><g id="_2-2" data-name="2"><circle class="cls-31" cx="1178.78" cy="323.39" r="45"/><circle class="cls-32" cx="1158.78" cy="303.39" r="35"/><circle class="cls-33" cx="1158.78" cy="303.39" r="35"/><circle class="cls-34" cx="1158.78" cy="303.39" r="35"/><path class="cls-35" d="M1366,430.64a35,35,0,1,0,35,35A35,35,0,0,0,1366,430.64Zm0,61.58a26.59,26.59,0,1,1,26.59-26.58A26.58,26.58,0,0,1,1366,492.22Z" transform="translate(-207.18 -162.24)"/><path class="cls-9" d="M1351.85,439.83l3.64,7.16a21.38,21.38,0,0,0-10.61,15l-7.93-1.25A29.46,29.46,0,0,1,1351.85,439.83Z" transform="translate(-207.18 -162.24)"/><path class="cls-9" d="M1362.33,444.55a21.11,21.11,0,0,0-5.3,1.66l-3.65-7.17a29.09,29.09,0,0,1,7.69-2.42Z" transform="translate(-207.18 -162.24)"/><path class="cls-10" d="M1360.55,433.29a32.17,32.17,0,0,0-8.71,2.74l1.05,2.05a29.89,29.89,0,0,1,8-2.53Zm-10.24,3.53a32.88,32.88,0,0,0-16.7,23.4l2.27.36a30.58,30.58,0,0,1,15.47-21.72Z" transform="translate(-207.18 -162.24)"/><path class="cls-11" d="M1336.64,472.13l-1.68.38a31.81,31.81,0,0,0,23,23.86l.43-1.67A30.07,30.07,0,0,1,1336.64,472.13Z" transform="translate(-207.18 -162.24)"/><path class="cls-9" d="M1336.65,472.14l-1.69.36a31.59,31.59,0,0,0,2.9,7.92l1.53-.8A29.18,29.18,0,0,1,1336.65,472.14Z" transform="translate(-207.18 -162.24)"/><path class="cls-12" d="M1331,465.64a34.89,34.89,0,0,0,10.26,24.75l13.18-13.2a16.37,16.37,0,0,1,0-23.12l-13.19-13.18A34.89,34.89,0,0,0,1331,465.64Z" transform="translate(-207.18 -162.24)"/><path class="cls-12" d="M1401,465.64a35,35,0,0,0-10.25-24.76l-13.19,13.19a16.36,16.36,0,0,1,0,23.12l13.19,13.19A34.86,34.86,0,0,0,1401,465.64Z" transform="translate(-207.18 -162.24)"/></g></g><g id="_1" data-name="1"><path class="cls-2" d="M1662,415H502a20,20,0,0,1,0-40H1662a20,20,0,1,1,0,40Z" transform="translate(-207.18 -162.24)"/><path class="cls-36" d="M1459.93,415H507.38c-14,0-25.41-8.95-25.41-20s11.38-20,25.41-20h952.55c14,0,25.4,8.95,25.4,20S1474,415,1459.93,415Z" transform="translate(-207.18 -162.24)"/><g id="_1-2" data-name="1"><circle class="cls-37" cx="1301.78" cy="256.37" r="45"/><circle class="cls-38" cx="1281.78" cy="236.37" r="35"/><circle class="cls-39" cx="1281.78" cy="236.37" r="35"/><circle class="cls-40" cx="1281.78" cy="236.37" r="35"/><path class="cls-41" d="M1489,363.61a35,35,0,1,0,35,35A35,35,0,0,0,1489,363.61Zm0,61.59a26.59,26.59,0,1,1,26.59-26.59A26.58,26.58,0,0,1,1489,425.2Z" transform="translate(-207.18 -162.24)"/><path class="cls-9" d="M1474.85,372.81l3.64,7.16a21.38,21.38,0,0,0-10.61,15l-7.93-1.25A29.46,29.46,0,0,1,1474.85,372.81Z" transform="translate(-207.18 -162.24)"/><path class="cls-9" d="M1485.33,377.53a21.11,21.11,0,0,0-5.3,1.66l-3.65-7.17a29.09,29.09,0,0,1,7.69-2.42Z" transform="translate(-207.18 -162.24)"/><path class="cls-10" d="M1483.55,366.27a32.17,32.17,0,0,0-8.71,2.74l1.05,2.05a29.89,29.89,0,0,1,8-2.53Zm-10.24,3.53a32.88,32.88,0,0,0-16.7,23.4l2.27.36a30.56,30.56,0,0,1,15.47-21.72Z" transform="translate(-207.18 -162.24)"/><path class="cls-42" d="M1459.64,405.11l-1.68.38a31.78,31.78,0,0,0,23,23.85l.43-1.66A30.07,30.07,0,0,1,1459.64,405.11Z" transform="translate(-207.18 -162.24)"/><path class="cls-9" d="M1459.65,405.12l-1.69.36a31.59,31.59,0,0,0,2.9,7.92l1.53-.8A29.32,29.32,0,0,1,1459.65,405.12Z" transform="translate(-207.18 -162.24)"/><path class="cls-43" d="M1454,398.61a34.9,34.9,0,0,0,10.26,24.76l13.18-13.2a16.37,16.37,0,0,1,0-23.12l-13.19-13.18A34.89,34.89,0,0,0,1454,398.61Z" transform="translate(-207.18 -162.24)"/><path class="cls-43" d="M1524,398.61a35,35,0,0,0-10.25-24.75h0l-13.19,13.19a16.36,16.36,0,0,1,0,23.12l13.19,13.19A34.86,34.86,0,0,0,1524,398.61Z" transform="translate(-207.18 -162.24)"/></g></g><text class="cls-44" transform="translate(569.15 63.39)">P<tspan class="cls-45" x="41.13" y="0">r</tspan><tspan x="69.71" y="0">o</tspan><tspan class="cls-46" x="109.41" y="0">f</tspan><tspan x="135" y="0">iciency</tspan></text><text class="cls-47" transform="translate(0 614.9)">P<tspan class="cls-48" x="17.05" y="0">r</tspan><tspan x="28.66" y="0">oblem So</tspan><tspan class="cls-49" x="154.38" y="0">l</tspan><tspan x="163.2" y="0">ving</tspan></text><text class="cls-47" transform="translate(35.87 551.93)">HTML &amp; CSS</text><text class="cls-47" transform="translate(55.31 252.76)">J<tspan class="cls-49" x="12.58" y="0">a</tspan><tspan class="cls-50" x="29.79" y="0">v</tspan><tspan x="44.26" y="0">aSc</tspan><tspan class="cls-51" x="89.55" y="0">r</tspan><tspan x="101.12" y="0">i</tspan><tspan class="cls-52" x="109.66" y="0">p</tspan><tspan x="126.67" y="0">t</tspan></text><text class="cls-47" transform="translate(87.98 322.53)"><tspan class="cls-53">R</tspan><tspan x="17.51" y="0">eact</tspan></text><text class="cls-47" transform="translate(71.56 401.37)">Python</text><text class="cls-47" transform="translate(68.39 476.37)">Django</text></g></g></svg>