<svg id="ade8c9af-7e2e-4eda-b5c8-b06129257226" xmlns="http://www.w3.org/2000/svg" viewBox="0 0 1076.06 755.23"><defs><style>.cls-1{fill:#3f3d56;}.cls-2{fill:#ff63bb;}.cls-3{fill:#2f2e41;}.cls-4{opacity:0.1;isolation:isolate;}.cls-5{fill:#ffe0bd;}.cls-6{fill:#d0cde1;}.cls-7{fill:#f2f2f2;}.cls-8{fill:#ffcd94;}</style></defs><path class="cls-1" d="M864.15,702.42c-7,26.6-31.46,43.22-31.46,43.22s-13.15-26.5-6.17-53.1S858,649.32,858,649.32,871.13,675.83,864.15,702.42Z"/><path class="cls-2" d="M853.55,696.8C834,716.12,831.8,745.63,831.8,745.63s29.53-1.83,49.09-21.16,21.75-48.83,21.75-48.83S873.11,677.47,853.55,696.8Z"/><path class="cls-3" d="M144.73,601.81h36.85l90.78-35.53S336.84,540,331.57,590s-14.47,117.1-14.47,117.1-29-13.16-44.74-9.21-5.26-80.26-5.26-80.26-128.94,61.84-140.79,53.94-14.47-63.15-14.47-63.15Z"/><path class="cls-4" d="M144.73,601.81h36.85l90.78-35.53S336.84,540,331.57,590s-14.47,117.1-14.47,117.1-29-13.16-44.74-9.21-5.26-80.26-5.26-80.26-128.94,61.84-140.79,53.94-14.47-63.15-14.47-63.15Z"/><path class="cls-5" d="M202.78,486.43l44.58,64.06,104,86.84s96.05,22.37,82.89,38.16-93.42-15.79-93.42-15.79S221.05,572.86,217.1,566.28s-47.37-68.42-47.37-68.42Z"/><path class="cls-6" d="M176.31,434.71l28.95,56.57s-6.58,27.64-17.11,30.27-55.26-34.21-55.26-34.21Z"/><path class="cls-4" d="M176.31,434.71l28.95,56.57s-6.58,27.64-17.11,30.27-55.26-34.21-55.26-34.21Z"/><path class="cls-3" d="M529.45,572.51,538,607.79a2.19,2.19,0,0,1,0,1.19L499.17,730.19a2.21,2.21,0,0,1-4.29-.42l-5.36-47.22a2.13,2.13,0,0,1,.09-.94l35.61-109.26a2.2,2.2,0,0,1,4.23.16Z"/><polygon class="cls-7" points="526.31 575.49 534.2 605.76 499.99 716.28 492.1 682.07 526.31 575.49"/><path class="cls-3" d="M353.94,740c1.32,3.95,136.84-1.31,138.16-2.63a29.23,29.23,0,0,0,2.89-5.26c1.24-2.63,2.37-5.26,2.37-5.26L492.1,684.2l-134.21-4.76s-3.36,36.1-4,52.63C353.68,736.24,353.68,739.17,353.94,740Z"/><polygon class="cls-4" points="474.99 689.97 477.62 726.81 418.41 726.81 418.41 689.97 474.99 689.97"/><polygon class="cls-4" points="398.68 701.81 399.03 701.74 397.36 717.6 364.47 717.6 364.47 701.81 398.68 701.81"/><path class="cls-4" d="M353.94,740c1.32,3.95,136.84-1.31,138.16-2.63a29.23,29.23,0,0,0,2.89-5.26H353.85C353.68,736.24,353.68,739.17,353.94,740Z"/><circle class="cls-8" cx="196.05" cy="357.08" r="59.21"/><path class="cls-8" d="M192.1,409.71s-19.73,34.21-23.68,52.63-59.21-36.84-59.21-36.84L102,406.42s52-24.34,48-44.08S192.1,409.71,192.1,409.71Z"/><path class="cls-8" d="M202.63,512.34l53.94,71,129,96.05s93.42,19.73,72.37,34.21-81.58-13.16-81.58-13.16-130.26-69.73-157.89-98.68-78.95-77.63-78.95-77.63Z"/><path class="cls-3" d="M130.26,622.86l15.79,25,94.23-29.65c20.68-6.5,43.35-4.11,61.69,7.45,16.44,10.36,27,26.81,3.29,51.15-47.37,48.68-78.95,22.36-78.95,22.36s-159.21,75-185.52,38.16-27.63-55.26-27.63-55.26S114.47,618.91,130.26,622.86Z"/><path class="cls-6" d="M327.63,709.7s42.1,27.63-7.9,40.79-86.84-5.26-86.84-5.26-43.42,0-43.42-22.37,14.47-25,14.47-25l44.74,6.58S302.63,690,327.63,709.7Z"/><path class="cls-3" d="M244.62,342.18c4,1.8,8,3.92,12.41,4.45s9.37-1,11.44-4.91c1.12-2.1,1.25-4.58,1.3-7,.16-7.22-.36-15-4.94-20.63-2.91-3.55-7.17-5.8-10.18-9.27-2.16-2.49-3.6-5.5-5.15-8.41-5.87-11-14.55-21.61-26.62-24.78-5-1.33-10.33-1.26-15.54-1.19l-30.4.43c-4.92.07-9.91.15-14.62,1.57-9.79,3-16.91,11.19-23.44,19.06-4.88,5.88-9.77,11.83-13.43,18.54A65.07,65.07,0,0,0,117.73,342a30.09,30.09,0,0,0,1.09,8.44,47.31,47.31,0,0,0,3.32,7.28c5.7,11.2,9.09,25.18,2.67,36,11.15-4.55,22.18-10.52,29.54-20.06,3.29-4.27,5.87-9.27,10.26-12.4s11.53-3.4,14.34,1.19a12.78,12.78,0,0,1,1.45,6c.21,3.45.2,7,1.67,10.16s4.94,5.66,8.27,4.72c5.73-1.61,5.18-10.4,9.59-14.4,3.35-3,8.52-2.45,12.83-3.83,5-1.6,8.78-5.95,10.92-10.76,1.63-3.65,1.61-13.22,4.69-15.2C232.24,336.64,241,340.58,244.62,342.18Z"/><path class="cls-6" d="M97.27,400.18a15.57,15.57,0,0,1,8.13,0c8.45,2.26,27.38,8.27,31.44,17.4,5.26,11.84,23.68,30.26,23.68,30.26s25,25,19.74,42.11-25,36.84-25,36.84,5.26,81.58-21,102.63S97.37,636,97.37,655.75,15.79,737.33,0,699.17c0,0,7.89-71,5.26-96C2.67,578.49,6.47,424.76,97.27,400.18Z"/><path class="cls-6" d="M139.47,433.39s80.26,59.21,65.79,84.21c0,0-48.68,23.68-59.21,22.37S94.74,492.6,84.21,488.65,68.42,413.65,139.47,433.39Z"/><circle class="cls-7" cx="498.06" cy="237.46" r="65"/><path class="cls-1" d="M1034.93,153H670.68V76.82h364.25Zm-362.64-1.6h361v-73h-361Z"/><rect class="cls-2" x="645.81" y="92.07" width="362.64" height="74.61"/><circle class="cls-2" cx="416.56" cy="15.24" r="5.62"/><circle class="cls-2" cx="435.82" cy="15.24" r="5.62"/><circle class="cls-2" cx="455.08" cy="15.24" r="5.62"/><path class="cls-1" d="M1076.06,439.67H400.52V0h675.54Zm-673.94-1.61h672.34V1.6H402.12Z"/><rect class="cls-1" x="401.32" y="24.34" width="673.94" height="1.6"/><path class="cls-1" d="M418.17,19.26a6.42,6.42,0,1,1,6.42-6.42A6.42,6.42,0,0,1,418.17,19.26Zm0-11.24A4.82,4.82,0,1,0,423,12.84,4.81,4.81,0,0,0,418.17,8Z"/><path class="cls-1" d="M437.43,19.26a6.42,6.42,0,1,1,6.41-6.42A6.42,6.42,0,0,1,437.43,19.26Zm0-11.24a4.82,4.82,0,1,0,4.81,4.82A4.82,4.82,0,0,0,437.43,8Z"/><path class="cls-1" d="M456.68,19.26a6.42,6.42,0,1,1,6.42-6.42h0A6.44,6.44,0,0,1,456.68,19.26Zm0-11.24a4.82,4.82,0,1,0,4.81,4.82h0A4.82,4.82,0,0,0,456.68,8Z"/><rect class="cls-1" x="612.11" y="25.14" width="1.6" height="414.35"/><rect class="cls-7" x="688.73" y="228.86" width="117.94" height="16.05"/><rect class="cls-7" x="874.07" y="228.86" width="117.94" height="16.05"/><path class="cls-1" d="M813.89,237.68H694.35V220H813.89ZM696,236.08H812.29V221.64H696Z"/><rect class="cls-7" x="688.73" y="353.22" width="117.94" height="16.05"/><path class="cls-1" d="M813.89,362H694.35V344.39H813.89ZM696,360.44H812.29V346H696Z"/><rect class="cls-7" x="689.13" y="289.43" width="303.27" height="16.05"/><path class="cls-1" d="M999.63,299.86H694.75V282.21H999.63Zm-303.28-1.6H998V283.82H696.35Z"/><path class="cls-1" d="M999.23,237.68H879.68V220H999.23Zm-117.94-1.6H997.62V221.64H881.29Z"/><path class="cls-1" d="M509.06,285.46a66,66,0,1,1,66-66A66,66,0,0,1,509.06,285.46Zm0-130a64,64,0,1,0,64,64A64,64,0,0,0,509.06,155.46Z"/><rect class="cls-1" x="748.06" y="744.46" width="283" height="2"/></svg>